<svg xmlns="http://www.w3.org/2000/svg" width="512" height="512" viewBox="0 0 512 512">
  <path fill="#D7DFC2" d="M 256 263 C 217 235 183 190 199 138 C 210 101 244 72 256 47 C 268 72 302 101 313 138 C 329 190 295 235 256 263 Z" transform="rotate(60 256 256)"/>
  <path fill="#D7DFC2" d="M 256 263 C 217 235 183 190 199 138 C 210 101 244 72 256 47 C 268 72 302 101 313 138 C 329 190 295 235 256 263 Z" transform="rotate(180 256 256)"/>
  <path fill="#D7DFC2" d="M 256 263 C 217 235 183 190 199 138 C 210 101 244 72 256 47 C 268 72 302 101 313 138 C 329 190 295 235 256 263 Z" transform="rotate(300 256 256)"/>
</svg>
